# xmcd
#
# Track frame offsets:
#	150
#	19655
#	28220
#	39832
#	52161
#	65056
#	80149
#	89298
#	105755
#	117935
#	132583
#	146526
#
# Disc length: 2121 seconds
#
# Revision: 1
# Processed by: cddbd v1.5.2PL0 Copyright (c) Steve Scherf et al.
# Submitted via: audiograbber 1.83.01
#
DISCID=a408470c
DTITLE=Cowboy Copas -  Beyond The Sunset
DYEAR=1963
DGENRE=Gospel
TTITLE0=Cowboy Copas - Cowboy's Deck Of Cards
TTITLE1=Cowboy Copas - The Man Upstairs
TTITLE2=Cowboy Copas - Shake A Hand
TTITLE3=Cowboy Copas - Family Reunion
TTITLE4=Cowboy Copas - The Wreck On The Highway
TTITLE5=Cowboy Copas - Beyond The Sunset
TTITLE6=Cowboy Copas - God Put A Rainbow In The Clouds
TTITLE7=Cowboy Copas - A Picture From Life's Other Side
TTITLE8=Cowboy Copas - What Will My Answer Be
TTITLE9=Cowboy Copas - Cowboy's Meditation
TTITLE10=Cowboy Copas - The Legend Of The Robin's Red Breast
TTITLE11=Cowboy Copas - Who At My Door Is Standing
EXTD=LP
EXTT0=
EXTT1=
EXTT2=
EXTT3=
EXTT4=
EXTT5=
EXTT6=
EXTT7=
EXTT8=
EXTT9=
EXTT10=
EXTT11=
PLAYORDER=
